<svg width="123" height="48" viewBox="0 0 123 48" fill="none" xmlns="http://www.w3.org/2000/svg">
<path d="M6.54 13.92L24 24.02L41.46 13.92M24 44.16V24M42 32V16C41.9993 15.2986 41.8141 14.6096 41.4631 14.0023C41.112 13.395 40.6075 12.8907 40 12.54L26 4.54C25.3919 4.18893 24.7021 4.0041 24 4.0041C23.2979 4.0041 22.6081 4.18893 22 4.54L8 12.54C7.39253 12.8907 6.88796 13.395 6.53692 14.0023C6.18589 14.6096 6.00072 15.2986 6 16V32C6.00072 32.7015 6.18589 33.3904 6.53692 33.9977C6.88796 34.605 7.39253 35.1093 8 35.46L22 43.46C22.6081 43.8111 23.2979 43.9959 24 43.9959C24.7021 43.9959 25.3919 43.8111 26 43.46L40 35.46C40.6075 35.1093 41.112 34.605 41.4631 33.9977C41.8141 33.3904 41.9993 32.7015 42 32Z" stroke="url(#paint0_linear_1_2)" stroke-width="4" stroke-linecap="round" stroke-linejoin="round"/>
<path d="M55.321 32V14.5455H67.2358V17.9716H59.5398V21.5511H66.4773V24.9858H59.5398V32H55.321ZM69.3601 32V18.9091H73.5277V32H69.3601ZM71.4482 17.3835C70.8629 17.3835 70.3601 17.1903 69.9396 16.804C69.5192 16.4119 69.3089 15.9403 69.3089 15.3892C69.3089 14.8437 69.5192 14.3778 69.9396 13.9915C70.3601 13.5994 70.8629 13.4034 71.4482 13.4034C72.0391 13.4034 72.5419 13.5994 72.9567 13.9915C73.3771 14.3778 73.5874 14.8437 73.5874 15.3892C73.5874 15.9403 73.3771 16.4119 72.9567 16.804C72.5419 17.1903 72.0391 17.3835 71.4482 17.3835ZM80.348 14.5455V32H76.1804V14.5455H80.348ZM89.12 32.2472C87.7507 32.2472 86.5689 31.9773 85.5746 31.4375C84.5859 30.892 83.8246 30.1165 83.2905 29.1108C82.7621 28.0994 82.4979 26.8977 82.4979 25.5057C82.4979 24.1534 82.7649 22.9716 83.299 21.9602C83.8331 20.9432 84.5859 20.1534 85.5575 19.5909C86.5291 19.0227 87.674 18.7386 88.9922 18.7386C89.924 18.7386 90.7763 18.8835 91.549 19.1733C92.3217 19.4631 92.9893 19.892 93.5518 20.4602C94.1143 21.0284 94.5518 21.7301 94.8643 22.5653C95.1768 23.3949 95.3331 24.3466 95.3331 25.4205V26.4602H83.9553V24.0398H91.4553C91.4496 23.5966 91.3445 23.2017 91.1399 22.8551C90.9354 22.5085 90.6541 22.2386 90.2962 22.0455C89.9439 21.8466 89.5376 21.7472 89.0774 21.7472C88.6115 21.7472 88.1939 21.8523 87.8246 22.0625C87.4553 22.267 87.1626 22.5483 86.9467 22.9062C86.7308 23.2585 86.6172 23.6591 86.6058 24.108V26.571C86.6058 27.1051 86.7109 27.5739 86.9212 27.9773C87.1314 28.375 87.4297 28.6847 87.8161 28.9062C88.2024 29.1278 88.6626 29.2386 89.1967 29.2386C89.5661 29.2386 89.9013 29.1875 90.2024 29.0852C90.5036 28.983 90.7621 28.8324 90.978 28.6335C91.1939 28.4347 91.3558 28.1903 91.4638 27.9006L95.2905 28.0114C95.1314 28.8693 94.782 29.6165 94.2422 30.2528C93.7081 30.8835 93.0064 31.375 92.1371 31.7273C91.2678 32.0739 90.2621 32.2472 89.12 32.2472ZM101.629 14.5455V32H97.4616V14.5455H101.629ZM106.83 36.9091C106.33 36.9091 105.859 36.8693 105.415 36.7898C104.972 36.7159 104.592 36.6165 104.273 36.4915L105.194 33.4659C105.603 33.6023 105.972 33.6818 106.302 33.7045C106.637 33.7273 106.924 33.6733 107.163 33.5426C107.407 33.4176 107.594 33.1932 107.725 32.8693L107.887 32.4773L103.234 18.9091H107.597L110.009 28.25H110.146L112.592 18.9091H116.981L112.046 33.2528C111.808 33.9688 111.469 34.5994 111.032 35.1449C110.6 35.696 110.04 36.1278 109.353 36.4403C108.671 36.7528 107.83 36.9091 106.83 36.9091Z" fill="url(#paint1_linear_1_2)"/>
<defs>
<linearGradient id="paint0_linear_1_2" x1="42" y1="24.0821" x2="6" y2="24.0821" gradientUnits="userSpaceOnUse">
<stop stop-color="#348F50"/>
<stop offset="1" stop-color="#56B4D3"/>
</linearGradient>
<linearGradient id="paint1_linear_1_2" x1="118" y1="23.5" x2="54" y2="23.5" gradientUnits="userSpaceOnUse">
<stop stop-color="#348F50"/>
<stop offset="1" stop-color="#56B4D3"/>
</linearGradient>
</defs>
</svg>
