<svg xmlns="http://www.w3.org/2000/svg" xmlns:xlink="http://www.w3.org/1999/xlink" xmlns:lucid="lucid" width="2682" height="1445.5"><g transform="translate(101 -699)" lucid:page-tab-id="HWEp-vi-RSFO"><path d="M1000 700h320v40.5h-320z" fill-opacity="0"/><path d="M1001 700c0 .55-.45 1-1 1s-1-.45-1-1 .45-1 1-1 1 .45 1 1zm4 0c0 .55-.45 1-1 1s-1-.45-1-1 .45-1 1-1 1 .45 1 1zm4 0c0 .55-.45 1-1 1s-1-.45-1-1 .45-1 1-1 1 .45 1 1zm4 0c0 .55-.45 1-1 1s-1-.45-1-1 .45-1 1-1 1 .45 1 1zm4 0c0 .55-.45 1-1 1s-1-.45-1-1 .45-1 1-1 1 .45 1 1zm4 0c0 .55-.45 1-1 1s-1-.45-1-1 .45-1 1-1 1 .45 1 1zm4 0c0 .55-.45 1-1 1s-1-.45-1-1 .45-1 1-1 1 .45 1 1zm4 0c0 .55-.45 1-1 1s-1-.45-1-1 .45-1 1-1 1 .45 1 1zm4 0c0 .55-.45 1-1 1s-1-.45-1-1 .45-1 1-1 1 .45 1 1zm4 0c0 .55-.45 1-1 1s-1-.45-1-1 .45-1 1-1 1 .45 1 1zm4 0c0 .55-.45 1-1 1s-1-.45-1-1 .45-1 1-1 1 .45 1 1zm4 0c0 .55-.45 1-1 1s-1-.45-1-1 .45-1 1-1 1 .45 1 1zm4 0c0 .55-.45 1-1 1s-1-.45-1-1 .45-1 1-1 1 .45 1 1zm4 0c0 .55-.45 1-1 1s-1-.45-1-1 .45-1 1-1 1 .45 1 1zm4 0c0 .55-.45 1-1 1s-1-.45-1-1 .45-1 1-1 1 .45 1 1zm4 0c0 .55-.45 1-1 1s-1-.45-1-1 .45-1 1-1 1 .45 1 1zm4 0c0 .55-.45 1-1 1s-1-.45-1-1 .45-1 1-1 1 .45 1 1zm4 0c0 .55-.45 1-1 1s-1-.45-1-1 .45-1 1-1 1 .45 1 1zm4 0c0 .55-.45 1-1 1s-1-.45-1-1 .45-1 1-1 1 .45 1 1zm4 0c0 .55-.45 1-1 1s-1-.45-1-1 .45-1 1-1 1 .45 1 1zm4 0c0 .55-.45 1-1 1s-1-.45-1-1 .45-1 1-1 1 .45 1 1zm4 0c0 .55-.45 1-1 1s-1-.45-1-1 .45-1 1-1 1 .45 1 1zm4 0c0 .55-.45 1-1 1s-1-.45-1-1 .45-1 1-1 1 .45 1 1zm4 0c0 .55-.45 1-1 1s-1-.45-1-1 .45-1 1-1 1 .45 1 1zm4 0c0 .55-.45 1-1 1s-1-.45-1-1 .45-1 1-1 1 .45 1 1zm4 0c0 .55-.45 1-1 1s-1-.45-1-1 .45-1 1-1 1 .45 1 1zm4 0c0 .55-.45 1-1 1s-1-.45-1-1 .45-1 1-1 1 .45 1 1zm4 0c0 .55-.45 1-1 1s-1-.45-1-1 .45-1 1-1 1 .45 1 1zm4 0c0 .55-.45 1-1 1s-1-.45-1-1 .45-1 1-1 1 .45 1 1zm4 0c0 .55-.45 1-1 1s-1-.45-1-1 .45-1 1-1 1 .45 1 1zm4 0c0 .55-.45 1-1 1s-1-.45-1-1 .45-1 1-1 1 .45 1 1zm4 0c0 .55-.45 1-1 1s-1-.45-1-1 .45-1 1-1 1 .45 1 1zm4 0c0 .55-.45 1-1 1s-1-.45-1-1 .45-1 1-1 1 .45 1 1zm4 0c0 .55-.45 1-1 1s-1-.45-1-1 .45-1 1-1 1 .45 1 1zm4 0c0 .55-.45 1-1 1s-1-.45-1-1 .45-1 1-1 1 .45 1 1zm4 0c0 .55-.45 1-1 1s-1-.45-1-1 .45-1 1-1 1 .45 1 1zm4 0c0 .55-.45 1-1 1s-1-.45-1-1 .45-1 1-1 1 .45 1 1zm4 0c0 .55-.45 1-1 1s-1-.45-1-1 .45-1 1-1 1 .45 1 1zm4 0c0 .55-.45 1-1 1s-1-.45-1-1 .45-1 1-1 1 .45 1 1zm4 0c0 .55-.45 1-1 1s-1-.45-1-1 .45-1 1-1 1 .45 1 1zm4 0c0 .55-.45 1-1 1s-1-.45-1-1 .45-1 1-1 1 .45 1 1zm4 0c0 .55-.45 1-1 1s-1-.45-1-1 .45-1 1-1 1 .45 1 1zm4 0c0 .55-.45 1-1 1s-1-.45-1-1 .45-1 1-1 1 .45 1 1zm4 0c0 .55-.45 1-1 1s-1-.45-1-1 .45-1 1-1 1 .45 1 1zm4 0c0 .55-.45 1-1 1s-1-.45-1-1 .45-1 1-1 1 .45 1 1zm4 0c0 .55-.45 1-1 1s-1-.45-1-1 .45-1 1-1 1 .45 1 1zm4 0c0 .55-.45 1-1 1s-1-.45-1-1 .45-1 1-1 1 .45 1 1zm4 0c0 .55-.45 1-1 1s-1-.45-1-1 .45-1 1-1 1 .45 1 1zm4 0c0 .55-.45 1-1 1s-1-.45-1-1 .45-1 1-1 1 .45 1 1zm4 0c0 .55-.45 1-1 1s-1-.45-1-1 .45-1 1-1 1 .45 1 1zm4 0c0 .55-.45 1-1 1s-1-.45-1-1 .45-1 1-1 1 .45 1 1zm4 0c0 .55-.45 1-1 1s-1-.45-1-1 .45-1 1-1 1 .45 1 1zm4 0c0 .55-.45 1-1 1s-1-.45-1-1 .45-1 1-1 1 .45 1 1zm4 0c0 .55-.45 1-1 1s-1-.45-1-1 .45-1 1-1 1 .45 1 1zm4 0c0 .55-.45 1-1 1s-1-.45-1-1 .45-1 1-1 1 .45 1 1zm4 0c0 .55-.45 1-1 1s-1-.45-1-1 .45-1 1-1 1 .45 1 1zm4 0c0 .55-.45 1-1 1s-1-.45-1-1 .45-1 1-1 1 .45 1 1zm4 0c0 .55-.45 1-1 1s-1-.45-1-1 .45-1 1-1 1 .45 1 1zm4 0c0 .55-.45 1-1 1s-1-.45-1-1 .45-1 1-1 1 .45 1 1zm4 0c0 .55-.45 1-1 1s-1-.45-1-1 .45-1 1-1 1 .45 1 1zm4 0c0 .55-.45 1-1 1s-1-.45-1-1 .45-1 1-1 1 .45 1 1zm4 0c0 .55-.45 1-1 1s-1-.45-1-1 .45-1 1-1 1 .45 1 1zm4 0c0 .55-.45 1-1 1s-1-.45-1-1 .45-1 1-1 1 .45 1 1zm4 0c0 .55-.45 1-1 1s-1-.45-1-1 .45-1 1-1 1 .45 1 1zm4 0c0 .55-.45 1-1 1s-1-.45-1-1 .45-1 1-1 1 .45 1 1zm4 0c0 .55-.45 1-1 1s-1-.45-1-1 .45-1 1-1 1 .45 1 1zm4 0c0 .55-.45 1-1 1s-1-.45-1-1 .45-1 1-1 1 .45 1 1zm4 0c0 .55-.45 1-1 1s-1-.45-1-1 .45-1 1-1 1 .45 1 1zm4 0c0 .55-.45 1-1 1s-1-.45-1-1 .45-1 1-1 1 .45 1 1zm4 0c0 .55-.45 1-1 1s-1-.45-1-1 .45-1 1-1 1 .45 1 1zm4 0c0 .55-.45 1-1 1s-1-.45-1-1 .45-1 1-1 1 .45 1 1zm4 0c0 .55-.45 1-1 1s-1-.45-1-1 .45-1 1-1 1 .45 1 1zm4 0c0 .55-.45 1-1 1s-1-.45-1-1 .45-1 1-1 1 .45 1 1zm4 0c0 .55-.45 1-1 1s-1-.45-1-1 .45-1 1-1 1 .45 1 1zm4 0c0 .55-.45 1-1 1s-1-.45-1-1 .45-1 1-1 1 .45 1 1zm4 0c0 .55-.45 1-1 1s-1-.45-1-1 .45-1 1-1 1 .45 1 1zm4 0c0 .55-.45 1-1 1s-1-.45-1-1 .45-1 1-1 1 .45 1 1zm4 0c0 .55-.45 1-1 1s-1-.45-1-1 .45-1 1-1 1 .45 1 1zm4 0c0 .55-.45 1-1 1s-1-.45-1-1 .45-1 1-1 1 .45 1 1zm4 0c0 .55-.45 1-1 1s-1-.45-1-1 .45-1 1-1 1 .45 1 1zm4 0c0 .55-.45 1-1 1s-1-.45-1-1 .45-1 1-1 1 .45 1 1zm0 4.05c0 .55-.45 1-1 1s-1-.45-1-1 .45-1 1-1 1 .45 1 1zm0 4.05c0 .55-.45 1-1 1s-1-.45-1-1 .45-1 1-1 1 .45 1 1zm0 4.05c0 .55-.45 1-1 1s-1-.45-1-1 .45-1 1-1 1 .45 1 1zm0 4.05c0 .55-.45 1-1 1s-1-.45-1-1 .45-1 1-1 1 .45 1 1zm0 4.05c0 .55-.45 1-1 1s-1-.45-1-1 .45-1 1-1 1 .45 1 1zm0 4.05c0 .55-.45 1-1 1s-1-.45-1-1 .45-1 1-1 1 .45 1 1zm0 4.05c0 .55-.45 1-1 1s-1-.45-1-1 .45-1 1-1 1 .45 1 1zm0 4.05c0 .55-.45 1-1 1s-1-.45-1-1 .45-1 1-1 1 .45 1 1zm0 4.05c0 .55-.45 1-1 1s-1-.45-1-1 .45-1 1-1 1 .45 1 1zm0 4.05c0 .55-.45 1-1 1s-1-.45-1-1 .45-1 1-1 1 .45 1 1zm-4 0c0 .55-.45 1-1 1s-1-.45-1-1 .45-1 1-1 1 .45 1 1zm-4 0c0 .55-.45 1-1 1s-1-.45-1-1 .45-1 1-1 1 .45 1 1zm-4 0c0 .55-.45 1-1 1s-1-.45-1-1 .45-1 1-1 1 .45 1 1zm-4 0c0 .55-.45 1-1 1s-1-.45-1-1 .45-1 1-1 1 .45 1 1zm-4 0c0 .55-.45 1-1 1s-1-.45-1-1 .45-1 1-1 1 .45 1 1zm-4 0c0 .55-.45 1-1 1s-1-.45-1-1 .45-1 1-1 1 .45 1 1zm-4 0c0 .55-.45 1-1 1s-1-.45-1-1 .45-1 1-1 1 .45 1 1zm-4 0c0 .55-.45 1-1 1s-1-.45-1-1 .45-1 1-1 1 .45 1 1zm-4 0c0 .55-.45 1-1 1s-1-.45-1-1 .45-1 1-1 1 .45 1 1zm-4 0c0 .55-.45 1-1 1s-1-.45-1-1 .45-1 1-1 1 .45 1 1zm-4 0c0 .55-.45 1-1 1s-1-.45-1-1 .45-1 1-1 1 .45 1 1zm-4 0c0 .55-.45 1-1 1s-1-.45-1-1 .45-1 1-1 1 .45 1 1zm-4 0c0 .55-.45 1-1 1s-1-.45-1-1 .45-1 1-1 1 .45 1 1zm-4 0c0 .55-.45 1-1 1s-1-.45-1-1 .45-1 1-1 1 .45 1 1zm-4 0c0 .55-.45 1-1 1s-1-.45-1-1 .45-1 1-1 1 .45 1 1zm-4 0c0 .55-.45 1-1 1s-1-.45-1-1 .45-1 1-1 1 .45 1 1zm-4 0c0 .55-.45 1-1 1s-1-.45-1-1 .45-1 1-1 1 .45 1 1zm-4 0c0 .55-.45 1-1 1s-1-.45-1-1 .45-1 1-1 1 .45 1 1zm-4 0c0 .55-.45 1-1 1s-1-.45-1-1 .45-1 1-1 1 .45 1 1zm-4 0c0 .55-.45 1-1 1s-1-.45-1-1 .45-1 1-1 1 .45 1 1zm-4 0c0 .55-.45 1-1 1s-1-.45-1-1 .45-1 1-1 1 .45 1 1zm-4 0c0 .55-.45 1-1 1s-1-.45-1-1 .45-1 1-1 1 .45 1 1zm-4 0c0 .55-.45 1-1 1s-1-.45-1-1 .45-1 1-1 1 .45 1 1zm-4 0c0 .55-.45 1-1 1s-1-.45-1-1 .45-1 1-1 1 .45 1 1zm-4 0c0 .55-.45 1-1 1s-1-.45-1-1 .45-1 1-1 1 .45 1 1zm-4 0c0 .55-.45 1-1 1s-1-.45-1-1 .45-1 1-1 1 .45 1 1zm-4 0c0 .55-.45 1-1 1s-1-.45-1-1 .45-1 1-1 1 .45 1 1zm-4 0c0 .55-.45 1-1 1s-1-.45-1-1 .45-1 1-1 1 .45 1 1zm-4 0c0 .55-.45 1-1 1s-1-.45-1-1 .45-1 1-1 1 .45 1 1zm-4 0c0 .55-.45 1-1 1s-1-.45-1-1 .45-1 1-1 1 .45 1 1zm-4 0c0 .55-.45 1-1 1s-1-.45-1-1 .45-1 1-1 1 .45 1 1zm-4 0c0 .55-.45 1-1 1s-1-.45-1-1 .45-1 1-1 1 .45 1 1zm-4 0c0 .55-.45 1-1 1s-1-.45-1-1 .45-1 1-1 1 .45 1 1zm-4 0c0 .55-.45 1-1 1s-1-.45-1-1 .45-1 1-1 1 .45 1 1zm-4 0c0 .55-.45 1-1 1s-1-.45-1-1 .45-1 1-1 1 .45 1 1zm-4 0c0 .55-.45 1-1 1s-1-.45-1-1 .45-1 1-1 1 .45 1 1zm-4 0c0 .55-.45 1-1 1s-1-.45-1-1 .45-1 1-1 1 .45 1 1zm-4 0c0 .55-.45 1-1 1s-1-.45-1-1 .45-1 1-1 1 .45 1 1zm-4 0c0 .55-.45 1-1 1s-1-.45-1-1 .45-1 1-1 1 .45 1 1zm-4 0c0 .55-.45 1-1 1s-1-.45-1-1 .45-1 1-1 1 .45 1 1zm-4 0c0 .55-.45 1-1 1s-1-.45-1-1 .45-1 1-1 1 .45 1 1zm-4 0c0 .55-.45 1-1 1s-1-.45-1-1 .45-1 1-1 1 .45 1 1zm-4 0c0 .55-.45 1-1 1s-1-.45-1-1 .45-1 1-1 1 .45 1 1zm-4 0c0 .55-.45 1-1 1s-1-.45-1-1 .45-1 1-1 1 .45 1 1zm-4 0c0 .55-.45 1-1 1s-1-.45-1-1 .45-1 1-1 1 .45 1 1zm-4 0c0 .55-.45 1-1 1s-1-.45-1-1 .45-1 1-1 1 .45 1 1zm-4 0c0 .55-.45 1-1 1s-1-.45-1-1 .45-1 1-1 1 .45 1 1zm-4 0c0 .55-.45 1-1 1s-1-.45-1-1 .45-1 1-1 1 .45 1 1zm-4 0c0 .55-.45 1-1 1s-1-.45-1-1 .45-1 1-1 1 .45 1 1zm-4 0c0 .55-.45 1-1 1s-1-.45-1-1 .45-1 1-1 1 .45 1 1zm-4 0c0 .55-.45 1-1 1s-1-.45-1-1 .45-1 1-1 1 .45 1 1zm-4 0c0 .55-.45 1-1 1s-1-.45-1-1 .45-1 1-1 1 .45 1 1zm-4 0c0 .55-.45 1-1 1s-1-.45-1-1 .45-1 1-1 1 .45 1 1zm-4 0c0 .55-.45 1-1 1s-1-.45-1-1 .45-1 1-1 1 .45 1 1zm-4 0c0 .55-.45 1-1 1s-1-.45-1-1 .45-1 1-1 1 .45 1 1zm-4 0c0 .55-.45 1-1 1s-1-.45-1-1 .45-1 1-1 1 .45 1 1zm-4 0c0 .55-.45 1-1 1s-1-.45-1-1 .45-1 1-1 1 .45 1 1zm-4 0c0 .55-.45 1-1 1s-1-.45-1-1 .45-1 1-1 1 .45 1 1zm-4 0c0 .55-.45 1-1 1s-1-.45-1-1 .45-1 1-1 1 .45 1 1zm-4 0c0 .55-.45 1-1 1s-1-.45-1-1 .45-1 1-1 1 .45 1 1zm-4 0c0 .55-.45 1-1 1s-1-.45-1-1 .45-1 1-1 1 .45 1 1zm-4 0c0 .55-.45 1-1 1s-1-.45-1-1 .45-1 1-1 1 .45 1 1zm-4 0c0 .55-.45 1-1 1s-1-.45-1-1 .45-1 1-1 1 .45 1 1zm-4 0c0 .55-.45 1-1 1s-1-.45-1-1 .45-1 1-1 1 .45 1 1zm-4 0c0 .55-.45 1-1 1s-1-.45-1-1 .45-1 1-1 1 .45 1 1zm-4 0c0 .55-.45 1-1 1s-1-.45-1-1 .45-1 1-1 1 .45 1 1zm-4 0c0 .55-.45 1-1 1s-1-.45-1-1 .45-1 1-1 1 .45 1 1zm-4 0c0 .55-.45 1-1 1s-1-.45-1-1 .45-1 1-1 1 .45 1 1zm-4 0c0 .55-.45 1-1 1s-1-.45-1-1 .45-1 1-1 1 .45 1 1zm-4 0c0 .55-.45 1-1 1s-1-.45-1-1 .45-1 1-1 1 .45 1 1zm-4 0c0 .55-.45 1-1 1s-1-.45-1-1 .45-1 1-1 1 .45 1 1zm-4 0c0 .55-.45 1-1 1s-1-.45-1-1 .45-1 1-1 1 .45 1 1zm-4 0c0 .55-.45 1-1 1s-1-.45-1-1 .45-1 1-1 1 .45 1 1zm-4 0c0 .55-.45 1-1 1s-1-.45-1-1 .45-1 1-1 1 .45 1 1zm-4 0c0 .55-.45 1-1 1s-1-.45-1-1 .45-1 1-1 1 .45 1 1zm-4 0c0 .55-.45 1-1 1s-1-.45-1-1 .45-1 1-1 1 .45 1 1zm-4 0c0 .55-.45 1-1 1s-1-.45-1-1 .45-1 1-1 1 .45 1 1zm-4 0c0 .55-.45 1-1 1s-1-.45-1-1 .45-1 1-1 1 .45 1 1zm-4 0c0 .55-.45 1-1 1s-1-.45-1-1 .45-1 1-1 1 .45 1 1zm-4 0c0 .55-.45 1-1 1s-1-.45-1-1 .45-1 1-1 1 .45 1 1zm0-4.05c0 .55-.45 1-1 1s-1-.45-1-1 .45-1 1-1 1 .45 1 1zm0-4.05c0 .55-.45 1-1 1s-1-.45-1-1 .45-1 1-1 1 .45 1 1zm0-4.05c0 .55-.45 1-1 1s-1-.45-1-1 .45-1 1-1 1 .45 1 1zm0-4.05c0 .55-.45 1-1 1s-1-.45-1-1 .45-1 1-1 1 .45 1 1zm0-4.05c0 .55-.45 1-1 1s-1-.45-1-1 .45-1 1-1 1 .45 1 1zm0-4.05c0 .55-.45 1-1 1s-1-.45-1-1 .45-1 1-1 1 .45 1 1zm0-4.05c0 .55-.45 1-1 1s-1-.45-1-1 .45-1 1-1 1 .45 1 1zm0-4.05c0 .55-.45 1-1 1s-1-.45-1-1 .45-1 1-1 1 .45 1 1zm0-4.05c0 .55-.45 1-1 1s-1-.45-1-1 .45-1 1-1 1 .45 1 1zm0-4.05c0 .55-.45 1-1 1s-1-.45-1-1 .45-1 1-1 1 .45 1 1z" fill="#282c33"/><use xlink:href="#a" transform="matrix(1,0,0,1,1008,708) translate(72.97685185185186 17.955555555555552)"/><use xlink:href="#b" transform="matrix(1,0,0,1,1008,708) translate(127.71635802469136 17.955555555555552)"/><use xlink:href="#c" transform="matrix(1,0,0,1,1008,708) translate(148.78919753086421 17.955555555555552)"/><use xlink:href="#d" transform="matrix(1,0,0,1,1008,708) translate(161.25833333333333 17.955555555555552)"/><path d="M380 900h360v226H380z" stroke="#282c33" stroke-width="2" fill="#fff"/><path d="M380 942.93h360m-360 91.37h360" stroke="#282c33" stroke-width="2" fill="none"/><use xlink:href="#e" transform="matrix(1,0,0,1,388,908) translate(117.29166666666667 17.988888888888887)"/><use xlink:href="#f" transform="matrix(1,0,0,1,392,950.9333333333333) translate(119.55740740740742 29.022222222222222)"/><use xlink:href="#g" transform="matrix(1,0,0,1,392,950.9333333333333) translate(133.21111111111114 29.022222222222222)"/><use xlink:href="#c" transform="matrix(1,0,0,1,392,950.9333333333333) translate(168 29.022222222222222)"/><use xlink:href="#h" transform="matrix(1,0,0,1,392,950.9333333333333) translate(180.46913580246914 29.022222222222222)"/><use xlink:href="#f" transform="matrix(1,0,0,1,392,950.9333333333333) translate(66.65709876543212 55.95555555555555)"/><use xlink:href="#i" transform="matrix(1,0,0,1,392,950.9333333333333) translate(80.31080246913582 55.95555555555555)"/><use xlink:href="#c" transform="matrix(1,0,0,1,392,950.9333333333333) translate(150.01327160493827 55.95555555555555)"/><use xlink:href="#j" transform="matrix(1,0,0,1,392,950.9333333333333) translate(162.4824074074074 55.95555555555555)"/><use xlink:href="#k" transform="matrix(1,0,0,1,392,1042.3) translate(73.7956790123457 29.022222222222222)"/><use xlink:href="#l" transform="matrix(1,0,0,1,392,1042.3) translate(93.12283950617285 29.022222222222222)"/><use xlink:href="#c" transform="matrix(1,0,0,1,392,1042.3) translate(194.99567901234565 29.022222222222222)"/><use xlink:href="#m" transform="matrix(1,0,0,1,392,1042.3) translate(207.46481481481482 29.022222222222222)"/><use xlink:href="#n" transform="matrix(1,0,0,1,392,1042.3) translate(168 55.95555555555555)"/><path d="M980 1258.5h360v199H980z" stroke="#282c33" stroke-width="2" fill="#fff"/><path d="M980 1301.43h360m-360 64.44h360" stroke="#282c33" stroke-width="2" fill="none"/><use xlink:href="#o" transform="matrix(1,0,0,1,988,1266.5) translate(66.91635802469138 17.988888888888887)"/><use xlink:href="#p" transform="matrix(1,0,0,1,988,1266.5) translate(180.01141975308644 17.988888888888887)"/><use xlink:href="#k" transform="matrix(1,0,0,1,992,1373.8666666666668) translate(91.78240740740742 29.022222222222222)"/><use xlink:href="#q" transform="matrix(1,0,0,1,992,1373.8666666666668) translate(111.10956790123458 29.022222222222222)"/><use xlink:href="#c" transform="matrix(1,0,0,1,992,1373.8666666666668) translate(177.00895061728394 29.022222222222222)"/><use xlink:href="#m" transform="matrix(1,0,0,1,992,1373.8666666666668) translate(189.47808641975308 29.022222222222222)"/><use xlink:href="#k" transform="matrix(1,0,0,1,992,1373.8666666666668) translate(97.4246913580247 55.95555555555555)"/><use xlink:href="#r" transform="matrix(1,0,0,1,992,1373.8666666666668) translate(116.75185185185185 55.95555555555555)"/><use xlink:href="#c" transform="matrix(1,0,0,1,992,1373.8666666666668) translate(185.02037037037036 55.95555555555555)"/><use xlink:href="#s" transform="matrix(1,0,0,1,992,1373.8666666666668) translate(197.48950617283953 55.95555555555555)"/><path d="M-100 1944.5h360v199h-360z" stroke="#282c33" stroke-width="2" fill="#fff"/><path d="M-100 1987.43h360m-360 64.44h360" stroke="#282c33" stroke-width="2" fill="none"/><use xlink:href="#t" transform="matrix(1,0,0,1,-92,1952.5) translate(112.27283950617286 17.988888888888887)"/><use xlink:href="#k" transform="matrix(1,0,0,1,-88,2059.866666666667) translate(91.78240740740742 29.022222222222222)"/><use xlink:href="#q" transform="matrix(1,0,0,1,-88,2059.866666666667) translate(111.10956790123458 29.022222222222222)"/><use xlink:href="#c" transform="matrix(1,0,0,1,-88,2059.866666666667) translate(177.00895061728394 29.022222222222222)"/><use xlink:href="#m" transform="matrix(1,0,0,1,-88,2059.866666666667) translate(189.47808641975308 29.022222222222222)"/><use xlink:href="#k" transform="matrix(1,0,0,1,-88,2059.866666666667) translate(97.4246913580247 55.95555555555555)"/><use xlink:href="#r" transform="matrix(1,0,0,1,-88,2059.866666666667) translate(116.75185185185185 55.95555555555555)"/><use xlink:href="#c" transform="matrix(1,0,0,1,-88,2059.866666666667) translate(185.02037037037036 55.95555555555555)"/><use xlink:href="#s" transform="matrix(1,0,0,1,-88,2059.866666666667) translate(197.48950617283953 55.95555555555555)"/><path d="M320 1944.5h360v199H320z" stroke="#282c33" stroke-width="2" fill="#fff"/><path d="M320 1987.43h360m-360 64.44h360" stroke="#282c33" stroke-width="2" fill="none"/><use xlink:href="#u" transform="matrix(1,0,0,1,328,1952.5) translate(114.7354938271605 17.988888888888887)"/><use xlink:href="#k" transform="matrix(1,0,0,1,332,2059.866666666667) translate(91.78240740740742 29.022222222222222)"/><use xlink:href="#q" transform="matrix(1,0,0,1,332,2059.866666666667) translate(111.10956790123458 29.022222222222222)"/><use xlink:href="#c" transform="matrix(1,0,0,1,332,2059.866666666667) translate(177.00895061728394 29.022222222222222)"/><use xlink:href="#m" transform="matrix(1,0,0,1,332,2059.866666666667) translate(189.47808641975308 29.022222222222222)"/><use xlink:href="#k" transform="matrix(1,0,0,1,332,2059.866666666667) translate(97.4246913580247 55.95555555555555)"/><use xlink:href="#r" transform="matrix(1,0,0,1,332,2059.866666666667) translate(116.75185185185185 55.95555555555555)"/><use xlink:href="#c" transform="matrix(1,0,0,1,332,2059.866666666667) translate(185.02037037037036 55.95555555555555)"/><use xlink:href="#s" transform="matrix(1,0,0,1,332,2059.866666666667) translate(197.48950617283953 55.95555555555555)"/><path d="M790 1944.5h360v199H790z" stroke="#282c33" stroke-width="2" fill="#fff"/><path d="M790 1987.43h360m-360 64.44h360" stroke="#282c33" stroke-width="2" fill="none"/><use xlink:href="#v" transform="matrix(1,0,0,1,798,1952.5) translate(107.25401234567903 17.988888888888887)"/><use xlink:href="#k" transform="matrix(1,0,0,1,802,2059.866666666667) translate(91.78240740740742 29.022222222222222)"/><use xlink:href="#q" transform="matrix(1,0,0,1,802,2059.866666666667) translate(111.10956790123458 29.022222222222222)"/><use xlink:href="#c" transform="matrix(1,0,0,1,802,2059.866666666667) translate(177.00895061728394 29.022222222222222)"/><use xlink:href="#m" transform="matrix(1,0,0,1,802,2059.866666666667) translate(189.47808641975308 29.022222222222222)"/><use xlink:href="#k" transform="matrix(1,0,0,1,802,2059.866666666667) translate(97.4246913580247 55.95555555555555)"/><use xlink:href="#r" transform="matrix(1,0,0,1,802,2059.866666666667) translate(116.75185185185185 55.95555555555555)"/><use xlink:href="#c" transform="matrix(1,0,0,1,802,2059.866666666667) translate(185.02037037037036 55.95555555555555)"/><use xlink:href="#s" transform="matrix(1,0,0,1,802,2059.866666666667) translate(197.48950617283953 55.95555555555555)"/><path d="M1260 1944.5h360v199h-360z" stroke="#282c33" stroke-width="2" fill="#fff"/><path d="M1260 1987.43h360m-360 64.44h360" stroke="#282c33" stroke-width="2" fill="none"/><use xlink:href="#w" transform="matrix(1,0,0,1,1268,1952.5) translate(113.51975308641977 17.988888888888887)"/><use xlink:href="#k" transform="matrix(1,0,0,1,1272,2059.866666666667) translate(91.78240740740742 29.022222222222222)"/><use xlink:href="#q" transform="matrix(1,0,0,1,1272,2059.866666666667) translate(111.10956790123458 29.022222222222222)"/><use xlink:href="#c" transform="matrix(1,0,0,1,1272,2059.866666666667) translate(177.00895061728394 29.022222222222222)"/><use xlink:href="#m" transform="matrix(1,0,0,1,1272,2059.866666666667) translate(189.47808641975308 29.022222222222222)"/><use xlink:href="#k" transform="matrix(1,0,0,1,1272,2059.866666666667) translate(97.4246913580247 55.95555555555555)"/><use xlink:href="#r" transform="matrix(1,0,0,1,1272,2059.866666666667) translate(116.75185185185185 55.95555555555555)"/><use xlink:href="#c" transform="matrix(1,0,0,1,1272,2059.866666666667) translate(185.02037037037036 55.95555555555555)"/><use xlink:href="#s" transform="matrix(1,0,0,1,1272,2059.866666666667) translate(197.48950617283953 55.95555555555555)"/><path d="M1740 1944.5h360v199h-360z" stroke="#282c33" stroke-width="2" fill="#fff"/><path d="M1740 1987.43h360m-360 64.44h360" stroke="#282c33" stroke-width="2" fill="none"/><use xlink:href="#x" transform="matrix(1,0,0,1,1747.9999999999998,1952.5) translate(107.87746913580249 17.988888888888887)"/><use xlink:href="#k" transform="matrix(1,0,0,1,1751.9999999999998,2059.866666666667) translate(91.78240740740742 29.022222222222222)"/><use xlink:href="#q" transform="matrix(1,0,0,1,1751.9999999999998,2059.866666666667) translate(111.10956790123458 29.022222222222222)"/><use xlink:href="#c" transform="matrix(1,0,0,1,1751.9999999999998,2059.866666666667) translate(177.00895061728394 29.022222222222222)"/><use xlink:href="#m" transform="matrix(1,0,0,1,1751.9999999999998,2059.866666666667) translate(189.47808641975308 29.022222222222222)"/><use xlink:href="#k" transform="matrix(1,0,0,1,1751.9999999999998,2059.866666666667) translate(97.4246913580247 55.95555555555555)"/><use xlink:href="#r" transform="matrix(1,0,0,1,1751.9999999999998,2059.866666666667) translate(116.75185185185185 55.95555555555555)"/><use xlink:href="#c" transform="matrix(1,0,0,1,1751.9999999999998,2059.866666666667) translate(185.02037037037036 55.95555555555555)"/><use xlink:href="#s" transform="matrix(1,0,0,1,1751.9999999999998,2059.866666666667) translate(197.48950617283953 55.95555555555555)"/><path d="M1580 900h360v226h-360z" stroke="#282c33" stroke-width="2" fill="#fff"/><path d="M1580 942.93h360m-360 91.37h360" stroke="#282c33" stroke-width="2" fill="none"/><use xlink:href="#y" transform="matrix(1,0,0,1,1588,908) translate(124.43024691358026 17.988888888888887)"/><use xlink:href="#z" transform="matrix(1,0,0,1,1592,950.9333333333333) translate(126.38425925925927 29.022222222222222)"/><use xlink:href="#c" transform="matrix(1,0,0,1,1592,950.9333333333333) translate(161.17314814814813 29.022222222222222)"/><use xlink:href="#h" transform="matrix(1,0,0,1,1592,950.9333333333333) translate(173.64228395061727 29.022222222222222)"/><use xlink:href="#A" transform="matrix(1,0,0,1,1592,950.9333333333333) translate(73.48395061728397 55.95555555555555)"/><use xlink:href="#c" transform="matrix(1,0,0,1,1592,950.9333333333333) translate(143.18641975308643 55.95555555555555)"/><use xlink:href="#j" transform="matrix(1,0,0,1,1592,950.9333333333333) translate(155.65555555555557 55.95555555555555)"/><use xlink:href="#k" transform="matrix(1,0,0,1,1592,1042.3) translate(52.068209876543236 29.022222222222222)"/><use xlink:href="#B" transform="matrix(1,0,0,1,1592,1042.3) translate(71.39537037037039 29.022222222222222)"/><use xlink:href="#c" transform="matrix(1,0,0,1,1592,1042.3) translate(230.37685185185182 29.022222222222222)"/><use xlink:href="#C" transform="matrix(1,0,0,1,1592,1042.3) translate(242.845987654321 29.022222222222222)"/><use xlink:href="#n" transform="matrix(1,0,0,1,1592,1042.3) translate(168 55.95555555555555)"/><path d="M80 1943v-230a12 12 0 0 1 12-12h1056a12 12 0 0 0 12-12v-214.12" stroke="#333" fill="none"/><path d="M80.47 1943.5h-.94v-.5h.94z" stroke="#333" stroke-width=".05" fill="#333"/><path d="M1160 1460.12l4.63 14.26h-9.27z" stroke="#333" fill="#fff"/><g><use xlink:href="#D" transform="matrix(1,0,0,1,87.99999999999999,1922.6999999999998) translate(0 14.4)"/></g><g><use xlink:href="#D" transform="matrix(1,0,0,1,1120.3647450843757,1457.7000000000003) translate(0 14.4)"/></g><path d="M500 1943v-230a12 12 0 0 1 12-12h636a12 12 0 0 0 12-12v-214.12" stroke="#333" fill="none"/><path d="M500.48 1943.5h-.96v-.5h.96z" stroke="#333" stroke-width=".05" fill="#333"/><path d="M1160 1460.12l4.63 14.26h-9.27z" stroke="#333" fill="#fff"/><g><use xlink:href="#D" transform="matrix(1,0,0,1,508,1922.6999999999998) translate(0 14.4)"/></g><g><use xlink:href="#D" transform="matrix(1,0,0,1,1120.3647450843757,1457.7000000000003) translate(0 14.4)"/></g><path d="M970 1943v-230a12 12 0 0 1 12-12h166a12 12 0 0 0 12-12v-214.12" stroke="#333" fill="none"/><path d="M970.48 1943.5h-.96v-.5h.96z" stroke="#333" stroke-width=".05" fill="#333"/><path d="M1160 1460.12l4.63 14.26h-9.27z" stroke="#333" fill="#fff"/><g><use xlink:href="#D" transform="matrix(1,0,0,1,978,1922.6999999999998) translate(0 14.4)"/></g><g><use xlink:href="#D" transform="matrix(1,0,0,1,1120.3647450843757,1457.7000000000005) translate(0 14.4)"/></g><path d="M1440 1943v-230a12 12 0 0 0-12-12h-256a12 12 0 0 1-12-12v-214.12" stroke="#333" fill="none"/><path d="M1440.47 1943.5h-.94v-.5h.94z" stroke="#333" stroke-width=".05" fill="#333"/><path d="M1160 1460.12l4.63 14.26h-9.27z" stroke="#333" fill="#fff"/><g><use xlink:href="#D" transform="matrix(1,0,0,1,1448,1922.6999999999998) translate(0 14.4)"/></g><g><use xlink:href="#D" transform="matrix(1,0,0,1,1120.3647450843757,1457.6999999999996) translate(0 14.4)"/></g><path d="M1920 1943v-230a12 12 0 0 0-12-12h-736a12 12 0 0 1-12-12v-214.12" stroke="#333" fill="none"/><path d="M1920.47 1943.5h-.94v-.5h.94z" stroke="#333" stroke-width=".05" fill="#333"/><path d="M1160 1460.12l4.63 14.26h-9.27z" stroke="#333" fill="#fff"/><g><use xlink:href="#D" transform="matrix(1,0,0,1,1927.9999999999998,1922.6999999999998) translate(0 14.4)"/></g><g><use xlink:href="#D" transform="matrix(1,0,0,1,1120.3647450843757,1457.7000000000005) translate(0 14.4)"/></g><path d="M560 1127.5v2.02m0 4.05v4.05m0 4.04v4.05m0 4.06v4.04m0 4.05v4.04m0 4.04v4.05m0 4.03v4.05m0 4.05v4.04m0 4.05v4.04m0 4.05v4.06m0 4.04v4.05m0 4.04v4.04m0 4.05v4.03m0 4.05v4.05m0 4.04v4.05m0 4.05v4.04m0 4.06v4.05m0 4.05v4.05m0 4.04v4.05m0 4.04v4.04m0 4.05v4.05m0 4.04v4.05m0 4.04v4.06m0 4.05v4.05m0 4.05v4.04m0 4.05v4.04m0 4.04v4.05m0 4.05v2.02l.15 1.88.1.45m1.8 4.32l.24.4 1.22 1.43 1.43 1.23.4.25m4.3 1.8l.47.1 1.88.15h2m3.98 0h4m3.97 0h4m3.97 0h4m3.97 0h3.98m4 0h3.97m4 0h3.97m4 0h3.97m3.98 0h4m3.97 0h4m3.98 0h3.98m4 0h3.98m4 0h3.97m4 0h3.98m3.98 0h4m3.98 0h4m3.97 0h4m3.98 0h3.98m4 0h4m3.97 0h4m3.97 0h4m3.97 0h4m4 0h3.97m4 0h3.97m4 0h3.98m3.98 0h4m3.97 0h4m3.98 0h3.98m4 0h3.97m4 0h3.97m4 0h3.98m3.98 0h4m3.97 0h4m3.98 0h3.98m4 0h3.97m4 0H853m4 0h3.98m3.98 0h4m3.97 0h4m3.98 0h4m3.98 0h3.98m4 0h3.98m3.98 0h4m3.97 0h3.98m3.98 0h4m3.98 0h3.98m4 0h3.97m3.98 0h4m3.97 0h4m3.97 0h2" stroke="#333" fill="none"/><path d="M560.48 1127.5h-.96v-.5h.96z" stroke="#333" stroke-width=".05" fill="#333"/><path d="M977.38 1358l-14.26 4.63v-9.27z" stroke="#333" fill="#333"/><g><use xlink:href="#E" transform="matrix(1,0,0,1,542,1126.2) translate(0 14.4)"/></g><g><use xlink:href="#D" transform="matrix(1,0,0,1,952.4999999999995,1327.7647450843758) translate(0 14.4)"/></g><path d="M1760 1127.5v2.02m0 4.05v4.05m0 4.04v4.05m0 4.06v4.04m0 4.05v4.04m0 4.04v4.05m0 4.03v4.05m0 4.05v4.04m0 4.05v4.04m0 4.05v4.06m0 4.04v4.05m0 4.04v4.04m0 4.05v4.03m0 4.05v4.05m0 4.04v4.05m0 4.05v4.04m0 4.06v4.05m0 4.05v4.05m0 4.04v4.05m0 4.04v4.04m0 4.05v4.05m0 4.04v4.05m0 4.04v4.06m0 4.05v4.05m0 4.05v4.04m0 4.05v4.04m0 4.04v4.05m0 4.05v2.02l-.15 1.88-.1.45m-1.8 4.32l-.24.4-1.22 1.43-1.43 1.23-.4.25m-4.32 1.8l-.45.1-1.88.15h-2m-3.98 0h-3.98m-4 0h-3.98m-3.98 0h-4m-3.97 0h-3.98m-4 0h-3.97m-4 0h-3.97m-4 0h-3.98m-3.98 0h-4m-3.97 0h-4m-3.97 0h-4m-3.98 0h-3.98m-4 0h-3.97m-4 0h-3.98m-3.98 0h-4m-3.98 0h-4m-3.98 0h-3.98m-4 0h-3.97m-4 0h-3.98m-4 0h-3.98m-3.98 0h-4m-3.97 0h-4m-4 0h-3.97m-4 0h-3.97m-4 0h-3.98m-3.98 0h-4m-3.97 0h-4m-3.97 0h-4m-3.98 0h-3.98m-4 0h-3.97m-4 0h-3.98m-3.98 0h-4m-3.97 0h-4m-3.98 0h-3.98m-4 0h-3.97m-4 0H1467m-4 0h-3.98m-3.98 0h-4m-3.97 0h-4m-3.98 0h-4m-3.98 0h-3.98m-4 0h-3.98m-3.98 0h-4m-3.97 0h-3.98m-3.98 0h-4m-3.98 0h-3.98m-4 0h-3.97m-3.98 0h-4m-3.97 0h-4m-3.97 0h-2" stroke="#333" fill="none"/><path d="M1760.47 1127.5h-.94v-.5h.94z" stroke="#333" stroke-width=".05" fill="#333"/><path d="M1342.62 1358l14.26-4.63v9.27z" stroke="#333" fill="#333"/><g><use xlink:href="#E" transform="matrix(1,0,0,1,1742,1126.2) translate(0 14.4)"/></g><g><use xlink:href="#D" transform="matrix(1,0,0,1,1340.5,1366.6352549156243) translate(0 14.4)"/></g><path d="M980 913.5h360v199H980z" stroke="#282c33" stroke-width="2" fill="#fff"/><path d="M980 956.43h360m-360 91.37h360" stroke="#282c33" stroke-width="2" fill="none"/><g><use xlink:href="#F" transform="matrix(1,0,0,1,988,921.5) translate(122.84043209876545 17.988888888888887)"/></g><g><use xlink:href="#f" transform="matrix(1,0,0,1,992,964.4333333333333) translate(49.231481481481495 29.022222222222222)"/><use xlink:href="#G" transform="matrix(1,0,0,1,992,964.4333333333333) translate(62.88518518518519 29.022222222222222)"/><use xlink:href="#H" transform="matrix(1,0,0,1,992,964.4333333333333) translate(177.35185185185185 29.022222222222222)"/><use xlink:href="#f" transform="matrix(1,0,0,1,992,964.4333333333333) translate(60.391358024691385 55.95555555555555)"/><use xlink:href="#I" transform="matrix(1,0,0,1,992,964.4333333333333) translate(74.04506172839508 55.95555555555555)"/><use xlink:href="#c" transform="matrix(1,0,0,1,992,964.4333333333333) translate(168 55.95555555555555)"/><use xlink:href="#J" transform="matrix(1,0,0,1,992,964.4333333333333) translate(180.46913580246914 55.95555555555555)"/></g><g><use xlink:href="#k" transform="matrix(1,0,0,1,992,1055.8) translate(84.26975308641977 28.988888888888887)"/><use xlink:href="#K" transform="matrix(1,0,0,1,992,1055.8) translate(103.59691358024693 28.988888888888887)"/><use xlink:href="#c" transform="matrix(1,0,0,1,992,1055.8) translate(198.1753086419753 28.988888888888887)"/><use xlink:href="#s" transform="matrix(1,0,0,1,992,1055.8) translate(210.64444444444445 28.988888888888887)"/></g><path d="M1341.5 1013h221.12" stroke="#333" fill="none"/><path d="M1341.5 1013.48h-.5v-.96h.5z" stroke="#333" stroke-width=".05" fill="#333"/><path d="M1577.38 1013l-14.26 4.63v-9.26z" stroke="#333" fill="#333"/><g><use xlink:href="#E" transform="matrix(1,0,0,1,1341,1017) translate(0 14.4)"/></g><g><use xlink:href="#E" transform="matrix(1,0,0,1,1569,982.7647450843758) translate(0 14.4)"/></g><path d="M978.5 1013H757.38" stroke="#333" fill="none"/><path d="M979 1013.48h-.5v-.96h.5z" stroke="#333" stroke-width=".05" fill="#333"/><path d="M742.62 1013l14.26-4.63v9.26z" stroke="#333" fill="#333"/><g><use xlink:href="#E" transform="matrix(1,0,0,1,969,987.4) translate(0 14.4)"/></g><g><use xlink:href="#E" transform="matrix(1,0,0,1,741,1021.6352549156243) translate(0 14.4)"/></g><path d="M998.5 720.25H882a12 12 0 0 0-12 12V1001a12 12 0 0 1-12 12H757.38" stroke="#333" fill="none"/><path d="M999 720.73h-.5v-.96h.5z" stroke="#333" stroke-width=".05" fill="#333"/><path d="M742.62 1013l14.26-4.63v9.26z" stroke="#333" fill="#333"/><path d="M1321.5 720.25H1438a12 12 0 0 1 12 12V1001a12 12 0 0 0 12 12h100.62" stroke="#333" fill="none"/><path d="M1321.5 720.73h-.5v-.96h.5z" stroke="#333" stroke-width=".05" fill="#333"/><path d="M1577.38 1013l-14.26 4.63v-9.26z" stroke="#333" fill="#333"/><path d="M1160 742v154.12" stroke="#333" fill="none"/><path d="M1160.47 742h-.94v-.5h.94z" stroke="#333" stroke-width=".05" fill="#333"/><path d="M1160 910.88l-4.63-14.26h9.27z" stroke="#333" fill="#333"/><path d="M2220 1944.5h360v199h-360z" stroke="#282c33" stroke-width="2" fill="#fff"/><path d="M2220 1987.43h360m-360 64.44h360" stroke="#282c33" stroke-width="2" fill="none"/><g><use xlink:href="#L" transform="matrix(1,0,0,1,2228,1952.5) translate(106.66172839506174 17.988888888888887)"/></g><g><use xlink:href="#k" transform="matrix(1,0,0,1,2232,2059.866666666667) translate(91.78240740740742 29.022222222222222)"/><use xlink:href="#q" transform="matrix(1,0,0,1,2232,2059.866666666667) translate(111.10956790123458 29.022222222222222)"/><use xlink:href="#c" transform="matrix(1,0,0,1,2232,2059.866666666667) translate(177.00895061728394 29.022222222222222)"/><use xlink:href="#m" transform="matrix(1,0,0,1,2232,2059.866666666667) translate(189.47808641975308 29.022222222222222)"/><use xlink:href="#k" transform="matrix(1,0,0,1,2232,2059.866666666667) translate(97.4246913580247 55.95555555555555)"/><use xlink:href="#r" transform="matrix(1,0,0,1,2232,2059.866666666667) translate(116.75185185185185 55.95555555555555)"/><use xlink:href="#c" transform="matrix(1,0,0,1,2232,2059.866666666667) translate(185.02037037037036 55.95555555555555)"/><use xlink:href="#s" transform="matrix(1,0,0,1,2232,2059.866666666667) translate(197.48950617283953 55.95555555555555)"/></g><path d="M2400 1943v-230a12 12 0 0 0-12-12H1172a12 12 0 0 1-12-12v-214.12" stroke="#333" fill="none"/><path d="M2400.47 1943.5h-.94v-.5h.94z" stroke="#333" stroke-width=".05" fill="#333"/><path d="M1160 1460.12l4.63 14.26h-9.27z" stroke="#333" fill="#fff"/><g><use xlink:href="#D" transform="matrix(1,0,0,1,2408,1922.6999999999998) translate(0 14.4)"/></g><g><use xlink:href="#D" transform="matrix(1,0,0,1,1120.3647450843757,1457.6999999999996) translate(0 14.4)"/></g><defs><path fill="#282c33" d="M210-169c-67 3-38 105-44 169h-31v-121c0-29-5-50-35-48C34-165 62-65 56 0H25l-1-190h30c1 10-1 24 2 32 10-44 99-50 107 0 11-21 27-35 58-36 85-2 47 119 55 194h-31v-121c0-29-5-49-35-48" id="M"/><path fill="#282c33" d="M141-36C126-15 110 5 73 4 37 3 15-17 15-53c-1-64 63-63 125-63 3-35-9-54-41-54-24 1-41 7-42 31l-33-3c5-37 33-52 76-52 45 0 72 20 72 64v82c-1 20 7 32 28 27v20c-31 9-61-2-59-35zM48-53c0 20 12 33 32 33 41-3 63-29 60-74-43 2-92-5-92 41" id="N"/><path fill="#282c33" d="M24-231v-30h32v30H24zM24 0v-190h32V0H24" id="O"/><path fill="#282c33" d="M117-194c89-4 53 116 60 194h-32v-121c0-31-8-49-39-48C34-167 62-67 57 0H25l-1-190h30c1 10-1 24 2 32 11-22 29-35 61-36" id="P"/><g id="a"><use transform="matrix(0.06234567901234567,0,0,0.06234567901234567,0,0)" xlink:href="#M"/><use transform="matrix(0.06234567901234567,0,0,0.06234567901234567,18.641358024691353,0)" xlink:href="#N"/><use transform="matrix(0.06234567901234567,0,0,0.06234567901234567,31.110493827160486,0)" xlink:href="#O"/><use transform="matrix(0.06234567901234567,0,0,0.06234567901234567,36.035802469135795,0)" xlink:href="#P"/></g><path fill="#282c33" d="M87 75C49 33 22-17 22-94c0-76 28-126 65-167h31c-38 41-64 92-64 168S80 34 118 75H87" id="Q"/><path fill="#282c33" d="M33-261c38 41 65 92 65 168S71 34 33 75H2C39 34 66-17 66-93S39-220 2-261h31" id="R"/><g id="b"><use transform="matrix(0.06234567901234567,0,0,0.06234567901234567,0,0)" xlink:href="#Q"/><use transform="matrix(0.06234567901234567,0,0,0.06234567901234567,7.4191358024691345,0)" xlink:href="#R"/></g><path fill="#282c33" d="M33-154v-36h34v36H33zM33 0v-36h34V0H33" id="S"/><use transform="matrix(0.06234567901234567,0,0,0.06234567901234567,0,0)" xlink:href="#S" id="c"/><path fill="#282c33" d="M33 0v-248h34V0H33" id="T"/><path fill="#282c33" d="M59-47c-2 24 18 29 38 22v24C64 9 27 4 27-40v-127H5v-23h24l9-43h21v43h35v23H59v120" id="U"/><path fill="#282c33" d="M100-194c63 0 86 42 84 106H49c0 40 14 67 53 68 26 1 43-12 49-29l28 8c-11 28-37 45-77 45C44 4 14-33 15-96c1-61 26-98 85-98zm52 81c6-60-76-77-97-28-3 7-6 17-6 28h103" id="V"/><path fill="#282c33" d="M177-190C167-65 218 103 67 71c-23-6-38-20-44-43l32-5c15 47 100 32 89-28v-30C133-14 115 1 83 1 29 1 15-40 15-95c0-56 16-97 71-98 29-1 48 16 59 35 1-10 0-23 2-32h30zM94-22c36 0 50-32 50-73 0-42-14-75-50-75-39 0-46 34-46 75s6 73 46 73" id="W"/><path fill="#282c33" d="M114-163C36-179 61-72 57 0H25l-1-190h30c1 12-1 29 2 39 6-27 23-49 58-41v29" id="X"/><g id="d"><use transform="matrix(0.06234567901234567,0,0,0.06234567901234567,0,0)" xlink:href="#T"/><use transform="matrix(0.06234567901234567,0,0,0.06234567901234567,6.234567901234566,0)" xlink:href="#P"/><use transform="matrix(0.06234567901234567,0,0,0.06234567901234567,18.7037037037037,0)" xlink:href="#U"/><use transform="matrix(0.06234567901234567,0,0,0.06234567901234567,24.938271604938265,0)" xlink:href="#V"/><use transform="matrix(0.06234567901234567,0,0,0.06234567901234567,37.4074074074074,0)" xlink:href="#W"/><use transform="matrix(0.06234567901234567,0,0,0.06234567901234567,49.87654320987653,0)" xlink:href="#V"/><use transform="matrix(0.06234567901234567,0,0,0.06234567901234567,62.34567901234566,0)" xlink:href="#X"/></g><path fill="#282c33" d="M63-220v92h138v28H63V0H30v-248h175v28H63" id="Y"/><path fill="#282c33" d="M24 0v-261h32V0H24" id="Z"/><path fill="#282c33" d="M233-177c-1 41-23 64-60 70L243 0h-38l-65-103H63V0H30v-248c88 3 205-21 203 71zM63-129c60-2 137 13 137-47 0-61-80-42-137-45v92" id="aa"/><path fill="#282c33" d="M85-194c31 0 48 13 60 33l-1-100h32l1 261h-30c-2-10 0-23-3-31C134-8 116 4 85 4 32 4 16-35 15-94c0-66 23-100 70-100zm9 24c-40 0-46 34-46 75 0 40 6 74 45 74 42 0 51-32 51-76 0-42-9-74-50-73" id="ab"/><g id="e"><use transform="matrix(0.06234567901234567,0,0,0.06234567901234567,0,0)" xlink:href="#Y"/><use transform="matrix(0.06234567901234567,0,0,0.06234567901234567,13.653703703703702,0)" xlink:href="#O"/><use transform="matrix(0.06234567901234567,0,0,0.06234567901234567,18.57901234567901,0)" xlink:href="#Z"/><use transform="matrix(0.06234567901234567,0,0,0.06234567901234567,23.504320987654317,0)" xlink:href="#V"/><use transform="matrix(0.06234567901234567,0,0,0.06234567901234567,35.97345679012345,0)" xlink:href="#aa"/><use transform="matrix(0.06234567901234567,0,0,0.06234567901234567,52.12098765432098,0)" xlink:href="#V"/><use transform="matrix(0.06234567901234567,0,0,0.06234567901234567,64.59012345679011,0)" xlink:href="#N"/><use transform="matrix(0.06234567901234567,0,0,0.06234567901234567,77.05925925925925,0)" xlink:href="#ab"/><use transform="matrix(0.06234567901234567,0,0,0.06234567901234567,89.52839506172839,0)" xlink:href="#V"/><use transform="matrix(0.06234567901234567,0,0,0.06234567901234567,101.99753086419753,0)" xlink:href="#X"/></g><path fill="#282c33" d="M16-82v-28h88v28H16" id="ac"/><use transform="matrix(0.06234567901234567,0,0,0.06234567901234567,0,0)" xlink:href="#ac" id="f"/><path fill="#282c33" d="M101-234c-31-9-42 10-38 44h38v23H63V0H32v-167H5v-23h27c-7-52 17-82 69-68v24" id="ad"/><g id="g"><use transform="matrix(0.06234567901234567,0,0,0.06234567901234567,0,0)" xlink:href="#ad"/><use transform="matrix(0.06234567901234567,0,0,0.06234567901234567,6.234567901234566,0)" xlink:href="#O"/><use transform="matrix(0.06234567901234567,0,0,0.06234567901234567,11.159876543209874,0)" xlink:href="#Z"/><use transform="matrix(0.06234567901234567,0,0,0.06234567901234567,16.085185185185182,0)" xlink:href="#V"/></g><g id="h"><use transform="matrix(0.06234567901234567,0,0,0.06234567901234567,0,0)" xlink:href="#Y"/><use transform="matrix(0.06234567901234567,0,0,0.06234567901234567,13.653703703703702,0)" xlink:href="#O"/><use transform="matrix(0.06234567901234567,0,0,0.06234567901234567,18.57901234567901,0)" xlink:href="#Z"/><use transform="matrix(0.06234567901234567,0,0,0.06234567901234567,23.504320987654317,0)" xlink:href="#V"/></g><path fill="#282c33" d="M100-194c62-1 85 37 85 99 1 63-27 99-86 99S16-35 15-95c0-66 28-99 85-99zM99-20c44 1 53-31 53-75 0-43-8-75-51-75s-53 32-53 75 10 74 51 75" id="ae"/><g id="i"><use transform="matrix(0.06234567901234567,0,0,0.06234567901234567,0,0)" xlink:href="#ad"/><use transform="matrix(0.06234567901234567,0,0,0.06234567901234567,6.234567901234566,0)" xlink:href="#ae"/><use transform="matrix(0.06234567901234567,0,0,0.06234567901234567,18.7037037037037,0)" xlink:href="#X"/><use transform="matrix(0.06234567901234567,0,0,0.06234567901234567,26.122839506172834,0)" xlink:href="#M"/><use transform="matrix(0.06234567901234567,0,0,0.06234567901234567,44.76419753086419,0)" xlink:href="#N"/><use transform="matrix(0.06234567901234567,0,0,0.06234567901234567,57.23333333333332,0)" xlink:href="#U"/></g><g id="j"><use transform="matrix(0.06234567901234567,0,0,0.06234567901234567,0,0)" xlink:href="#Y"/><use transform="matrix(0.06234567901234567,0,0,0.06234567901234567,13.653703703703702,0)" xlink:href="#O"/><use transform="matrix(0.06234567901234567,0,0,0.06234567901234567,18.57901234567901,0)" xlink:href="#Z"/><use transform="matrix(0.06234567901234567,0,0,0.06234567901234567,23.504320987654317,0)" xlink:href="#V"/><use transform="matrix(0.06234567901234567,0,0,0.06234567901234567,35.97345679012345,0)" xlink:href="#Y"/><use transform="matrix(0.06234567901234567,0,0,0.06234567901234567,49.62716049382715,0)" xlink:href="#ae"/><use transform="matrix(0.06234567901234567,0,0,0.06234567901234567,62.09629629629628,0)" xlink:href="#X"/><use transform="matrix(0.06234567901234567,0,0,0.06234567901234567,69.51543209876542,0)" xlink:href="#M"/><use transform="matrix(0.06234567901234567,0,0,0.06234567901234567,88.15679012345677,0)" xlink:href="#N"/><use transform="matrix(0.06234567901234567,0,0,0.06234567901234567,100.62592592592591,0)" xlink:href="#U"/></g><path fill="#282c33" d="M118-107v75H92v-75H18v-26h74v-75h26v75h74v26h-74" id="af"/><use transform="matrix(0.06234567901234567,0,0,0.06234567901234567,0,0)" xlink:href="#af" id="k"/><g id="l"><use transform="matrix(0.06234567901234567,0,0,0.06234567901234567,0,0)" xlink:href="#X"/><use transform="matrix(0.06234567901234567,0,0,0.06234567901234567,7.4191358024691345,0)" xlink:href="#V"/><use transform="matrix(0.06234567901234567,0,0,0.06234567901234567,19.888271604938268,0)" xlink:href="#N"/><use transform="matrix(0.06234567901234567,0,0,0.06234567901234567,32.3574074074074,0)" xlink:href="#ab"/><use transform="matrix(0.06234567901234567,0,0,0.06234567901234567,44.82654320987653,0)" xlink:href="#Y"/><use transform="matrix(0.06234567901234567,0,0,0.06234567901234567,58.48024691358023,0)" xlink:href="#O"/><use transform="matrix(0.06234567901234567,0,0,0.06234567901234567,63.40555555555554,0)" xlink:href="#Z"/><use transform="matrix(0.06234567901234567,0,0,0.06234567901234567,68.33086419753084,0)" xlink:href="#V"/><use transform="matrix(0.06234567901234567,0,0,0.06234567901234567,80.79999999999998,0)" xlink:href="#Q"/><use transform="matrix(0.06234567901234567,0,0,0.06234567901234567,88.21913580246911,0)" xlink:href="#R"/></g><path fill="#282c33" d="M135-143c-3-34-86-38-87 0 15 53 115 12 119 90S17 21 10-45l28-5c4 36 97 45 98 0-10-56-113-15-118-90-4-57 82-63 122-42 12 7 21 19 24 35" id="ag"/><g id="m"><use transform="matrix(0.06234567901234567,0,0,0.06234567901234567,0,0)" xlink:href="#ag"/><use transform="matrix(0.06234567901234567,0,0,0.06234567901234567,11.22222222222222,0)" xlink:href="#U"/><use transform="matrix(0.06234567901234567,0,0,0.06234567901234567,17.456790123456784,0)" xlink:href="#X"/><use transform="matrix(0.06234567901234567,0,0,0.06234567901234567,24.87592592592592,0)" xlink:href="#O"/><use transform="matrix(0.06234567901234567,0,0,0.06234567901234567,29.801234567901226,0)" xlink:href="#P"/><use transform="matrix(0.06234567901234567,0,0,0.06234567901234567,42.27037037037036,0)" xlink:href="#W"/></g><g id="o"><use transform="matrix(0.06234567901234567,0,0,0.06234567901234567,0,0)" xlink:href="#Y"/><use transform="matrix(0.06234567901234567,0,0,0.06234567901234567,13.653703703703702,0)" xlink:href="#O"/><use transform="matrix(0.06234567901234567,0,0,0.06234567901234567,18.57901234567901,0)" xlink:href="#Z"/><use transform="matrix(0.06234567901234567,0,0,0.06234567901234567,23.504320987654317,0)" xlink:href="#V"/><use transform="matrix(0.06234567901234567,0,0,0.06234567901234567,35.97345679012345,0)" xlink:href="#Y"/><use transform="matrix(0.06234567901234567,0,0,0.06234567901234567,49.62716049382715,0)" xlink:href="#ae"/><use transform="matrix(0.06234567901234567,0,0,0.06234567901234567,62.09629629629628,0)" xlink:href="#X"/><use transform="matrix(0.06234567901234567,0,0,0.06234567901234567,69.51543209876542,0)" xlink:href="#M"/><use transform="matrix(0.06234567901234567,0,0,0.06234567901234567,88.15679012345677,0)" xlink:href="#N"/><use transform="matrix(0.06234567901234567,0,0,0.06234567901234567,100.62592592592591,0)" xlink:href="#U"/></g><path fill="#282c33" d="M205 0l-28-72H64L36 0H1l101-248h38L239 0h-34zm-38-99l-47-123c-12 45-31 82-46 123h93" id="ah"/><path fill="#282c33" d="M115-194c53 0 69 39 70 98 0 66-23 100-70 100C84 3 66-7 56-30L54 0H23l1-261h32v101c10-23 28-34 59-34zm-8 174c40 0 45-34 45-75 0-40-5-75-45-74-42 0-51 32-51 76 0 43 10 73 51 73" id="ai"/><path fill="#282c33" d="M96-169c-40 0-48 33-48 73s9 75 48 75c24 0 41-14 43-38l32 2c-6 37-31 61-74 61-59 0-76-41-82-99-10-93 101-131 147-64 4 7 5 14 7 22l-32 3c-4-21-16-35-41-35" id="aj"/><g id="p"><use transform="matrix(0.06234567901234567,0,0,0.06234567901234567,0,0)" xlink:href="#Q"/><use transform="matrix(0.06234567901234567,0,0,0.06234567901234567,7.4191358024691345,0)" xlink:href="#ah"/><use transform="matrix(0.06234567901234567,0,0,0.06234567901234567,22.382098765432094,0)" xlink:href="#ai"/><use transform="matrix(0.06234567901234567,0,0,0.06234567901234567,34.85123456790123,0)" xlink:href="#ag"/><use transform="matrix(0.06234567901234567,0,0,0.06234567901234567,46.07345679012345,0)" xlink:href="#U"/><use transform="matrix(0.06234567901234567,0,0,0.06234567901234567,52.308024691358014,0)" xlink:href="#X"/><use transform="matrix(0.06234567901234567,0,0,0.06234567901234567,59.72716049382715,0)" xlink:href="#N"/><use transform="matrix(0.06234567901234567,0,0,0.06234567901234567,72.19629629629628,0)" xlink:href="#aj"/><use transform="matrix(0.06234567901234567,0,0,0.06234567901234567,83.4185185185185,0)" xlink:href="#U"/><use transform="matrix(0.06234567901234567,0,0,0.06234567901234567,89.65308641975307,0)" xlink:href="#R"/></g><g id="q"><use transform="matrix(0.06234567901234567,0,0,0.06234567901234567,0,0)" xlink:href="#X"/><use transform="matrix(0.06234567901234567,0,0,0.06234567901234567,7.4191358024691345,0)" xlink:href="#V"/><use transform="matrix(0.06234567901234567,0,0,0.06234567901234567,19.888271604938268,0)" xlink:href="#N"/><use transform="matrix(0.06234567901234567,0,0,0.06234567901234567,32.3574074074074,0)" xlink:href="#ab"/><use transform="matrix(0.06234567901234567,0,0,0.06234567901234567,44.82654320987653,0)" xlink:href="#Q"/><use transform="matrix(0.06234567901234567,0,0,0.06234567901234567,52.24567901234567,0)" xlink:href="#R"/></g><path fill="#282c33" d="M206 0h-36l-40-164L89 0H53L-1-190h32L70-26l43-164h34l41 164 42-164h31" id="ak"/><g id="r"><use transform="matrix(0.06234567901234567,0,0,0.06234567901234567,0,0)" xlink:href="#ak"/><use transform="matrix(0.06234567901234567,0,0,0.06234567901234567,16.147530864197527,0)" xlink:href="#X"/><use transform="matrix(0.06234567901234567,0,0,0.06234567901234567,23.566666666666663,0)" xlink:href="#O"/><use transform="matrix(0.06234567901234567,0,0,0.06234567901234567,28.49197530864197,0)" xlink:href="#U"/><use transform="matrix(0.06234567901234567,0,0,0.06234567901234567,34.72654320987654,0)" xlink:href="#V"/><use transform="matrix(0.06234567901234567,0,0,0.06234567901234567,47.19567901234567,0)" xlink:href="#Q"/><use transform="matrix(0.06234567901234567,0,0,0.06234567901234567,54.61481481481481,0)" xlink:href="#R"/></g><path fill="#282c33" d="M108 0H70L1-190h34L89-25l56-165h34" id="al"/><g id="s"><use transform="matrix(0.06234567901234567,0,0,0.06234567901234567,0,0)" xlink:href="#al"/><use transform="matrix(0.06234567901234567,0,0,0.06234567901234567,11.22222222222222,0)" xlink:href="#ae"/><use transform="matrix(0.06234567901234567,0,0,0.06234567901234567,23.691358024691354,0)" xlink:href="#O"/><use transform="matrix(0.06234567901234567,0,0,0.06234567901234567,28.61666666666666,0)" xlink:href="#ab"/></g><path fill="#282c33" d="M30-248c87 1 191-15 191 75 0 78-77 80-158 76V0H30v-248zm33 125c57 0 124 11 124-50 0-59-68-47-124-48v98" id="am"/><path fill="#282c33" d="M190 0L58-211 59 0H30v-248h39L202-35l-2-213h31V0h-41" id="an"/><path fill="#282c33" d="M143 4C61 4 22-44 18-125c-5-107 100-154 193-111 17 8 29 25 37 43l-32 9c-13-25-37-40-76-40-61 0-88 39-88 99 0 61 29 100 91 101 35 0 62-11 79-27v-45h-74v-28h105v86C228-13 192 4 143 4" id="ao"/><g id="t"><use transform="matrix(0.06234567901234567,0,0,0.06234567901234567,0,0)" xlink:href="#am"/><use transform="matrix(0.06234567901234567,0,0,0.06234567901234567,14.96296296296296,0)" xlink:href="#an"/><use transform="matrix(0.06234567901234567,0,0,0.06234567901234567,31.11049382716049,0)" xlink:href="#ao"/><use transform="matrix(0.06234567901234567,0,0,0.06234567901234567,48.56728395061728,0)" xlink:href="#Y"/><use transform="matrix(0.06234567901234567,0,0,0.06234567901234567,62.22098765432098,0)" xlink:href="#ae"/><use transform="matrix(0.06234567901234567,0,0,0.06234567901234567,74.6901234567901,0)" xlink:href="#X"/><use transform="matrix(0.06234567901234567,0,0,0.06234567901234567,82.10925925925923,0)" xlink:href="#M"/><use transform="matrix(0.06234567901234567,0,0,0.06234567901234567,100.75061728395059,0)" xlink:href="#N"/><use transform="matrix(0.06234567901234567,0,0,0.06234567901234567,113.21975308641973,0)" xlink:href="#U"/></g><path fill="#282c33" d="M153-248C145-148 188 4 80 4 36 3 13-21 6-62l32-5c4 25 16 42 43 43 27 0 39-20 39-49v-147H72v-28h81" id="ap"/><g id="u"><use transform="matrix(0.06234567901234567,0,0,0.06234567901234567,0,0)" xlink:href="#ap"/><use transform="matrix(0.06234567901234567,0,0,0.06234567901234567,11.22222222222222,0)" xlink:href="#am"/><use transform="matrix(0.06234567901234567,0,0,0.06234567901234567,26.18518518518518,0)" xlink:href="#ao"/><use transform="matrix(0.06234567901234567,0,0,0.06234567901234567,43.64197530864197,0)" xlink:href="#Y"/><use transform="matrix(0.06234567901234567,0,0,0.06234567901234567,57.29567901234567,0)" xlink:href="#ae"/><use transform="matrix(0.06234567901234567,0,0,0.06234567901234567,69.7648148148148,0)" xlink:href="#X"/><use transform="matrix(0.06234567901234567,0,0,0.06234567901234567,77.18395061728393,0)" xlink:href="#M"/><use transform="matrix(0.06234567901234567,0,0,0.06234567901234567,95.82530864197528,0)" xlink:href="#N"/><use transform="matrix(0.06234567901234567,0,0,0.06234567901234567,108.29444444444442,0)" xlink:href="#U"/></g><path fill="#282c33" d="M30 0v-248h187v28H63v79h144v27H63v87h162V0H30" id="aq"/><g id="v"><use transform="matrix(0.06234567901234567,0,0,0.06234567901234567,0,0)" xlink:href="#ap"/><use transform="matrix(0.06234567901234567,0,0,0.06234567901234567,11.22222222222222,0)" xlink:href="#am"/><use transform="matrix(0.06234567901234567,0,0,0.06234567901234567,26.18518518518518,0)" xlink:href="#aq"/><use transform="matrix(0.06234567901234567,0,0,0.06234567901234567,41.14814814814814,0)" xlink:href="#ao"/><use transform="matrix(0.06234567901234567,0,0,0.06234567901234567,58.60493827160492,0)" xlink:href="#Y"/><use transform="matrix(0.06234567901234567,0,0,0.06234567901234567,72.25864197530862,0)" xlink:href="#ae"/><use transform="matrix(0.06234567901234567,0,0,0.06234567901234567,84.72777777777776,0)" xlink:href="#X"/><use transform="matrix(0.06234567901234567,0,0,0.06234567901234567,92.14691358024689,0)" xlink:href="#M"/><use transform="matrix(0.06234567901234567,0,0,0.06234567901234567,110.78827160493825,0)" xlink:href="#N"/><use transform="matrix(0.06234567901234567,0,0,0.06234567901234567,123.25740740740738,0)" xlink:href="#U"/></g><path fill="#282c33" d="M212-179c-10-28-35-45-73-45-59 0-87 40-87 99 0 60 29 101 89 101 43 0 62-24 78-52l27 14C228-24 195 4 139 4 59 4 22-46 18-125c-6-104 99-153 187-111 19 9 31 26 39 46" id="ar"/><path fill="#282c33" d="M185-189c-5-48-123-54-124 2 14 75 158 14 163 119 3 78-121 87-175 55-17-10-28-26-33-46l33-7c5 56 141 63 141-1 0-78-155-14-162-118-5-82 145-84 179-34 5 7 8 16 11 25" id="as"/><path fill="#282c33" d="M137 0h-34L2-248h35l83 218 83-218h36" id="at"/><g id="w"><use transform="matrix(0.06234567901234567,0,0,0.06234567901234567,0,0)" xlink:href="#ar"/><use transform="matrix(0.06234567901234567,0,0,0.06234567901234567,16.147530864197527,0)" xlink:href="#as"/><use transform="matrix(0.06234567901234567,0,0,0.06234567901234567,31.11049382716049,0)" xlink:href="#at"/><use transform="matrix(0.06234567901234567,0,0,0.06234567901234567,46.07345679012345,0)" xlink:href="#Y"/><use transform="matrix(0.06234567901234567,0,0,0.06234567901234567,59.72716049382716,0)" xlink:href="#ae"/><use transform="matrix(0.06234567901234567,0,0,0.06234567901234567,72.19629629629628,0)" xlink:href="#X"/><use transform="matrix(0.06234567901234567,0,0,0.06234567901234567,79.61543209876541,0)" xlink:href="#M"/><use transform="matrix(0.06234567901234567,0,0,0.06234567901234567,98.25679012345677,0)" xlink:href="#N"/><use transform="matrix(0.06234567901234567,0,0,0.06234567901234567,110.7259259259259,0)" xlink:href="#U"/></g><path fill="#282c33" d="M195 0l-74-108L45 0H8l94-129-87-119h37l69 98 67-98h37l-84 118L233 0h-38" id="au"/><path fill="#282c33" d="M30 0v-248h33v221h125V0H30" id="av"/><g id="x"><use transform="matrix(0.06234567901234567,0,0,0.06234567901234567,0,0)" xlink:href="#au"/><use transform="matrix(0.06234567901234567,0,0,0.06234567901234567,14.96296296296296,0)" xlink:href="#as"/><use transform="matrix(0.06234567901234567,0,0,0.06234567901234567,29.92592592592592,0)" xlink:href="#av"/><use transform="matrix(0.06234567901234567,0,0,0.06234567901234567,42.39506172839505,0)" xlink:href="#au"/><use transform="matrix(0.06234567901234567,0,0,0.06234567901234567,57.35802469135801,0)" xlink:href="#Y"/><use transform="matrix(0.06234567901234567,0,0,0.06234567901234567,71.01172839506171,0)" xlink:href="#ae"/><use transform="matrix(0.06234567901234567,0,0,0.06234567901234567,83.48086419753085,0)" xlink:href="#X"/><use transform="matrix(0.06234567901234567,0,0,0.06234567901234567,90.89999999999998,0)" xlink:href="#M"/><use transform="matrix(0.06234567901234567,0,0,0.06234567901234567,109.54135802469133,0)" xlink:href="#N"/><use transform="matrix(0.06234567901234567,0,0,0.06234567901234567,122.01049382716047,0)" xlink:href="#U"/></g><path fill="#282c33" d="M266 0h-40l-56-210L115 0H75L2-248h35L96-30l15-64 43-154h32l59 218 59-218h35" id="aw"/><g id="y"><use transform="matrix(0.06234567901234567,0,0,0.06234567901234567,0,0)" xlink:href="#Y"/><use transform="matrix(0.06234567901234567,0,0,0.06234567901234567,13.653703703703702,0)" xlink:href="#O"/><use transform="matrix(0.06234567901234567,0,0,0.06234567901234567,18.57901234567901,0)" xlink:href="#Z"/><use transform="matrix(0.06234567901234567,0,0,0.06234567901234567,23.504320987654317,0)" xlink:href="#V"/><use transform="matrix(0.06234567901234567,0,0,0.06234567901234567,35.97345679012345,0)" xlink:href="#aw"/><use transform="matrix(0.06234567901234567,0,0,0.06234567901234567,56.67222222222222,0)" xlink:href="#X"/><use transform="matrix(0.06234567901234567,0,0,0.06234567901234567,64.09135802469135,0)" xlink:href="#O"/><use transform="matrix(0.06234567901234567,0,0,0.06234567901234567,69.01666666666665,0)" xlink:href="#U"/><use transform="matrix(0.06234567901234567,0,0,0.06234567901234567,75.25123456790122,0)" xlink:href="#V"/><use transform="matrix(0.06234567901234567,0,0,0.06234567901234567,87.72037037037035,0)" xlink:href="#X"/></g><g id="z"><use transform="matrix(0.06234567901234567,0,0,0.06234567901234567,0,0)" xlink:href="#ad"/><use transform="matrix(0.06234567901234567,0,0,0.06234567901234567,6.234567901234566,0)" xlink:href="#O"/><use transform="matrix(0.06234567901234567,0,0,0.06234567901234567,11.159876543209874,0)" xlink:href="#Z"/><use transform="matrix(0.06234567901234567,0,0,0.06234567901234567,16.085185185185182,0)" xlink:href="#V"/></g><g id="A"><use transform="matrix(0.06234567901234567,0,0,0.06234567901234567,0,0)" xlink:href="#ad"/><use transform="matrix(0.06234567901234567,0,0,0.06234567901234567,6.234567901234566,0)" xlink:href="#ae"/><use transform="matrix(0.06234567901234567,0,0,0.06234567901234567,18.7037037037037,0)" xlink:href="#X"/><use transform="matrix(0.06234567901234567,0,0,0.06234567901234567,26.122839506172834,0)" xlink:href="#M"/><use transform="matrix(0.06234567901234567,0,0,0.06234567901234567,44.76419753086419,0)" xlink:href="#N"/><use transform="matrix(0.06234567901234567,0,0,0.06234567901234567,57.23333333333332,0)" xlink:href="#U"/></g><g id="B"><use transform="matrix(0.06234567901234567,0,0,0.06234567901234567,0,0)" xlink:href="#ak"/><use transform="matrix(0.06234567901234567,0,0,0.06234567901234567,16.147530864197527,0)" xlink:href="#X"/><use transform="matrix(0.06234567901234567,0,0,0.06234567901234567,23.566666666666663,0)" xlink:href="#O"/><use transform="matrix(0.06234567901234567,0,0,0.06234567901234567,28.49197530864197,0)" xlink:href="#U"/><use transform="matrix(0.06234567901234567,0,0,0.06234567901234567,34.72654320987654,0)" xlink:href="#V"/><use transform="matrix(0.06234567901234567,0,0,0.06234567901234567,47.19567901234567,0)" xlink:href="#Y"/><use transform="matrix(0.06234567901234567,0,0,0.06234567901234567,60.84938271604938,0)" xlink:href="#O"/><use transform="matrix(0.06234567901234567,0,0,0.06234567901234567,65.77469135802468,0)" xlink:href="#Z"/><use transform="matrix(0.06234567901234567,0,0,0.06234567901234567,70.69999999999999,0)" xlink:href="#V"/><use transform="matrix(0.06234567901234567,0,0,0.06234567901234567,83.16913580246913,0)" xlink:href="#Q"/><use transform="matrix(0.06234567901234567,0,0,0.06234567901234567,90.58827160493826,0)" xlink:href="#ag"/><use transform="matrix(0.06234567901234567,0,0,0.06234567901234567,101.81049382716047,0)" xlink:href="#U"/><use transform="matrix(0.06234567901234567,0,0,0.06234567901234567,108.04506172839504,0)" xlink:href="#X"/><use transform="matrix(0.06234567901234567,0,0,0.06234567901234567,115.46419753086417,0)" xlink:href="#O"/><use transform="matrix(0.06234567901234567,0,0,0.06234567901234567,120.38950617283948,0)" xlink:href="#P"/><use transform="matrix(0.06234567901234567,0,0,0.06234567901234567,132.85864197530861,0)" xlink:href="#W"/><use transform="matrix(0.06234567901234567,0,0,0.06234567901234567,145.32777777777775,0)" xlink:href="#R"/></g><g id="C"><use transform="matrix(0.06234567901234567,0,0,0.06234567901234567,0,0)" xlink:href="#al"/><use transform="matrix(0.06234567901234567,0,0,0.06234567901234567,11.22222222222222,0)" xlink:href="#ae"/><use transform="matrix(0.06234567901234567,0,0,0.06234567901234567,23.691358024691354,0)" xlink:href="#O"/><use transform="matrix(0.06234567901234567,0,0,0.06234567901234567,28.61666666666666,0)" xlink:href="#ab"/></g><path d="M101-251c68 0 85 55 85 127S166 4 100 4C33 4 14-52 14-124c0-73 17-127 87-127zm-1 229c47 0 54-49 54-102s-4-102-53-102c-51 0-55 48-55 102 0 53 5 102 54 102" id="ax"/><path d="M33 0v-38h34V0H33" id="ay"/><path d="M80-196l47-18 7 23-49 13 32 44-20 13-27-46-27 45-21-12 33-44-49-13 8-23 47 19-2-53h23" id="az"/><g id="D"><use transform="matrix(0.05,0,0,0.05,0,0)" xlink:href="#ax"/><use transform="matrix(0.05,0,0,0.05,10,0)" xlink:href="#ay"/><use transform="matrix(0.05,0,0,0.05,15,0)" xlink:href="#ay"/><use transform="matrix(0.05,0,0,0.05,20,0)" xlink:href="#az"/></g><path d="M27 0v-27h64v-190l-56 39v-29l58-41h29v221h61V0H27" id="aA"/><use transform="matrix(0.05,0,0,0.05,0,0)" xlink:href="#aA" id="E"/><g id="F"><use transform="matrix(0.06234567901234567,0,0,0.06234567901234567,0,0)" xlink:href="#ar"/><use transform="matrix(0.06234567901234567,0,0,0.06234567901234567,16.147530864197527,0)" xlink:href="#ae"/><use transform="matrix(0.06234567901234567,0,0,0.06234567901234567,28.61666666666666,0)" xlink:href="#P"/><use transform="matrix(0.06234567901234567,0,0,0.06234567901234567,41.08580246913579,0)" xlink:href="#al"/><use transform="matrix(0.06234567901234567,0,0,0.06234567901234567,52.308024691358014,0)" xlink:href="#V"/><use transform="matrix(0.06234567901234567,0,0,0.06234567901234567,64.77716049382715,0)" xlink:href="#X"/><use transform="matrix(0.06234567901234567,0,0,0.06234567901234567,72.19629629629628,0)" xlink:href="#U"/><use transform="matrix(0.06234567901234567,0,0,0.06234567901234567,78.43086419753085,0)" xlink:href="#V"/><use transform="matrix(0.06234567901234567,0,0,0.06234567901234567,90.89999999999998,0)" xlink:href="#X"/></g><g id="G"><use transform="matrix(0.06234567901234567,0,0,0.06234567901234567,0,0)" xlink:href="#ad"/><use transform="matrix(0.06234567901234567,0,0,0.06234567901234567,6.234567901234566,0)" xlink:href="#O"/><use transform="matrix(0.06234567901234567,0,0,0.06234567901234567,11.159876543209874,0)" xlink:href="#Z"/><use transform="matrix(0.06234567901234567,0,0,0.06234567901234567,16.085185185185182,0)" xlink:href="#V"/><use transform="matrix(0.06234567901234567,0,0,0.06234567901234567,28.554320987654314,0)" xlink:href="#aa"/><use transform="matrix(0.06234567901234567,0,0,0.06234567901234567,44.70185185185184,0)" xlink:href="#V"/><use transform="matrix(0.06234567901234567,0,0,0.06234567901234567,57.170987654320975,0)" xlink:href="#N"/><use transform="matrix(0.06234567901234567,0,0,0.06234567901234567,69.6401234567901,0)" xlink:href="#ab"/><use transform="matrix(0.06234567901234567,0,0,0.06234567901234567,82.10925925925923,0)" xlink:href="#V"/><use transform="matrix(0.06234567901234567,0,0,0.06234567901234567,94.57839506172837,0)" xlink:href="#X"/><use transform="matrix(0.06234567901234567,0,0,0.06234567901234567,101.9975308641975,0)" xlink:href="#S"/></g><g id="H"><use transform="matrix(0.06234567901234567,0,0,0.06234567901234567,0,0)" xlink:href="#Y"/><use transform="matrix(0.06234567901234567,0,0,0.06234567901234567,13.653703703703702,0)" xlink:href="#O"/><use transform="matrix(0.06234567901234567,0,0,0.06234567901234567,18.57901234567901,0)" xlink:href="#Z"/><use transform="matrix(0.06234567901234567,0,0,0.06234567901234567,23.504320987654317,0)" xlink:href="#V"/><use transform="matrix(0.06234567901234567,0,0,0.06234567901234567,35.97345679012345,0)" xlink:href="#aa"/><use transform="matrix(0.06234567901234567,0,0,0.06234567901234567,52.12098765432098,0)" xlink:href="#V"/><use transform="matrix(0.06234567901234567,0,0,0.06234567901234567,64.59012345679011,0)" xlink:href="#N"/><use transform="matrix(0.06234567901234567,0,0,0.06234567901234567,77.05925925925925,0)" xlink:href="#ab"/><use transform="matrix(0.06234567901234567,0,0,0.06234567901234567,89.52839506172839,0)" xlink:href="#V"/><use transform="matrix(0.06234567901234567,0,0,0.06234567901234567,101.99753086419753,0)" xlink:href="#X"/></g><g id="I"><use transform="matrix(0.06234567901234567,0,0,0.06234567901234567,0,0)" xlink:href="#ad"/><use transform="matrix(0.06234567901234567,0,0,0.06234567901234567,6.234567901234566,0)" xlink:href="#O"/><use transform="matrix(0.06234567901234567,0,0,0.06234567901234567,11.159876543209874,0)" xlink:href="#Z"/><use transform="matrix(0.06234567901234567,0,0,0.06234567901234567,16.085185185185182,0)" xlink:href="#V"/><use transform="matrix(0.06234567901234567,0,0,0.06234567901234567,28.554320987654314,0)" xlink:href="#aw"/><use transform="matrix(0.06234567901234567,0,0,0.06234567901234567,49.253086419753075,0)" xlink:href="#X"/><use transform="matrix(0.06234567901234567,0,0,0.06234567901234567,56.67222222222221,0)" xlink:href="#O"/><use transform="matrix(0.06234567901234567,0,0,0.06234567901234567,61.597530864197516,0)" xlink:href="#U"/><use transform="matrix(0.06234567901234567,0,0,0.06234567901234567,67.83209876543208,0)" xlink:href="#V"/><use transform="matrix(0.06234567901234567,0,0,0.06234567901234567,80.30123456790122,0)" xlink:href="#X"/></g><g id="J"><use transform="matrix(0.06234567901234567,0,0,0.06234567901234567,0,0)" xlink:href="#Y"/><use transform="matrix(0.06234567901234567,0,0,0.06234567901234567,13.653703703703702,0)" xlink:href="#O"/><use transform="matrix(0.06234567901234567,0,0,0.06234567901234567,18.57901234567901,0)" xlink:href="#Z"/><use transform="matrix(0.06234567901234567,0,0,0.06234567901234567,23.504320987654317,0)" xlink:href="#V"/><use transform="matrix(0.06234567901234567,0,0,0.06234567901234567,35.97345679012345,0)" xlink:href="#aw"/><use transform="matrix(0.06234567901234567,0,0,0.06234567901234567,56.67222222222222,0)" xlink:href="#X"/><use transform="matrix(0.06234567901234567,0,0,0.06234567901234567,64.09135802469135,0)" xlink:href="#O"/><use transform="matrix(0.06234567901234567,0,0,0.06234567901234567,69.01666666666665,0)" xlink:href="#U"/><use transform="matrix(0.06234567901234567,0,0,0.06234567901234567,75.25123456790122,0)" xlink:href="#V"/><use transform="matrix(0.06234567901234567,0,0,0.06234567901234567,87.72037037037035,0)" xlink:href="#X"/></g><g id="K"><use transform="matrix(0.06234567901234567,0,0,0.06234567901234567,0,0)" xlink:href="#aj"/><use transform="matrix(0.06234567901234567,0,0,0.06234567901234567,11.22222222222222,0)" xlink:href="#ae"/><use transform="matrix(0.06234567901234567,0,0,0.06234567901234567,23.691358024691354,0)" xlink:href="#P"/><use transform="matrix(0.06234567901234567,0,0,0.06234567901234567,36.16049382716049,0)" xlink:href="#al"/><use transform="matrix(0.06234567901234567,0,0,0.06234567901234567,47.38271604938271,0)" xlink:href="#V"/><use transform="matrix(0.06234567901234567,0,0,0.06234567901234567,59.85185185185184,0)" xlink:href="#X"/><use transform="matrix(0.06234567901234567,0,0,0.06234567901234567,67.27098765432098,0)" xlink:href="#U"/><use transform="matrix(0.06234567901234567,0,0,0.06234567901234567,73.50555555555555,0)" xlink:href="#Q"/><use transform="matrix(0.06234567901234567,0,0,0.06234567901234567,80.92469135802467,0)" xlink:href="#R"/></g><path fill="#282c33" d="M140-251c81 0 123 46 123 126C263-46 219 4 140 4 59 4 17-45 17-125s42-126 123-126zm0 227c63 0 89-41 89-101s-29-99-89-99c-61 0-89 39-89 99S79-25 140-24" id="aB"/><g id="L"><use transform="matrix(0.06234567901234567,0,0,0.06234567901234567,0,0)" xlink:href="#ap"/><use transform="matrix(0.06234567901234567,0,0,0.06234567901234567,11.22222222222222,0)" xlink:href="#as"/><use transform="matrix(0.06234567901234567,0,0,0.06234567901234567,26.18518518518518,0)" xlink:href="#aB"/><use transform="matrix(0.06234567901234567,0,0,0.06234567901234567,43.64197530864197,0)" xlink:href="#an"/><use transform="matrix(0.06234567901234567,0,0,0.06234567901234567,59.789506172839495,0)" xlink:href="#Y"/><use transform="matrix(0.06234567901234567,0,0,0.06234567901234567,73.4432098765432,0)" xlink:href="#ae"/><use transform="matrix(0.06234567901234567,0,0,0.06234567901234567,85.91234567901233,0)" xlink:href="#X"/><use transform="matrix(0.06234567901234567,0,0,0.06234567901234567,93.33148148148146,0)" xlink:href="#M"/><use transform="matrix(0.06234567901234567,0,0,0.06234567901234567,111.97283950617282,0)" xlink:href="#N"/><use transform="matrix(0.06234567901234567,0,0,0.06234567901234567,124.44197530864196,0)" xlink:href="#U"/></g></defs></g></svg>